<svg width="502" height="300" viewBox="0 0 502 300" fill="none" xmlns="http://www.w3.org/2000/svg">
<path d="M141.377 108.954C141.377 115.128 142.045 120.133 143.213 123.804C144.547 127.475 146.216 131.479 148.552 135.818C149.386 137.152 149.72 138.487 149.72 139.655C149.72 141.324 148.719 142.992 146.55 144.661L136.038 151.669C134.536 152.67 133.035 153.17 131.7 153.17C130.031 153.17 128.363 152.336 126.694 150.834C124.358 148.331 122.356 145.662 120.688 142.992C119.019 140.156 117.351 136.986 115.515 133.148C102.501 148.498 86.1492 156.174 66.4606 156.174C52.4451 156.174 41.266 152.169 33.0902 144.16C24.9145 136.151 20.7432 125.473 20.7432 112.125C20.7432 97.9422 25.7487 86.4294 35.9267 77.7531C46.1047 69.0768 59.6197 64.7386 76.8055 64.7386C82.4784 64.7386 88.3182 65.2392 94.4918 66.0734C100.665 66.9077 107.006 68.2425 113.68 69.7442V57.564C113.68 44.8832 111.01 36.04 105.838 30.8676C100.498 25.6952 91.4884 23.1924 78.6408 23.1924C72.801 23.1924 66.7943 23.8598 60.6208 25.3615C54.4473 26.8632 48.4406 28.6986 42.6008 31.0345C39.9312 32.2024 37.9289 32.8699 36.761 33.2036C35.593 33.5373 34.7587 33.7041 34.0913 33.7041C31.7554 33.7041 30.5874 32.0356 30.5874 28.5317V20.356C30.5874 17.6863 30.9211 15.6841 31.7554 14.5161C32.5897 13.3482 34.0913 12.1802 36.4273 11.0122C42.2671 8.0089 49.2749 5.50612 57.4506 3.50389C65.6264 1.33482 74.3027 0.333704 83.4795 0.333704C103.335 0.333704 117.851 4.83871 127.195 13.8487C136.372 22.8587 141.044 36.5406 141.044 54.8943V108.954H141.377ZM73.6353 134.316C79.1414 134.316 84.8144 133.315 90.821 131.313C96.8277 129.31 102.167 125.64 106.672 120.634C109.342 117.464 111.344 113.96 112.345 109.956C113.346 105.951 114.013 101.112 114.013 95.4394V88.4316C109.175 87.2636 104.002 86.2625 98.6631 85.5951C93.3238 84.9277 88.1514 84.594 82.979 84.594C71.7999 84.594 63.6241 86.7631 58.118 91.2681C52.6119 95.7731 49.9423 102.113 49.9423 110.456C49.9423 118.298 51.9445 124.138 56.1158 128.142C60.1203 132.314 65.9601 134.316 73.6353 134.316ZM207.617 152.336C204.614 152.336 202.612 151.835 201.277 150.667C199.942 149.666 198.774 147.33 197.773 144.16L158.563 15.1835C157.562 11.8465 157.061 9.67742 157.061 8.50946C157.061 5.83982 158.396 4.33815 161.066 4.33815H177.417C180.587 4.33815 182.757 4.83871 183.924 6.00667C185.259 7.00779 186.26 9.34372 187.262 12.5139L215.293 122.97L241.322 12.5139C242.156 9.17686 243.157 7.00779 244.492 6.00667C245.827 5.00556 248.163 4.33815 251.166 4.33815H264.514C267.684 4.33815 269.853 4.83871 271.188 6.00667C272.523 7.00779 273.691 9.34372 274.358 12.5139L300.721 124.305L329.586 12.5139C330.587 9.17686 331.755 7.00779 332.923 6.00667C334.258 5.00556 336.427 4.33815 339.431 4.33815H354.948C357.617 4.33815 359.119 5.67297 359.119 8.50946C359.119 9.34372 358.952 10.178 358.785 11.1791C358.619 12.1802 358.285 13.515 357.617 15.3504L317.406 144.327C316.405 147.664 315.237 149.833 313.902 150.834C312.567 151.835 310.398 152.503 307.562 152.503H293.213C290.042 152.503 287.873 152.002 286.538 150.834C285.204 149.666 284.036 147.497 283.368 144.16L257.506 36.5406L231.811 143.993C230.977 147.33 229.976 149.499 228.641 150.667C227.306 151.835 224.97 152.336 221.967 152.336H207.617ZM422.022 156.841C413.346 156.841 404.67 155.84 396.327 153.838C387.985 151.835 381.477 149.666 377.139 147.164C374.47 145.662 372.634 143.993 371.967 142.492C371.299 140.99 370.966 139.321 370.966 137.82V129.31C370.966 125.806 372.3 124.138 374.803 124.138C375.804 124.138 376.805 124.305 377.807 124.639C378.808 124.972 380.309 125.64 381.978 126.307C387.651 128.81 393.824 130.812 400.332 132.147C407.006 133.482 413.513 134.149 420.187 134.149C430.699 134.149 438.874 132.314 444.547 128.643C450.22 124.972 453.224 119.633 453.224 112.792C453.224 108.12 451.722 104.283 448.719 101.112C445.715 97.9422 440.042 95.1057 431.867 92.436L407.673 84.9277C395.493 81.0901 386.483 75.4171 380.977 67.9088C375.471 60.5673 372.634 52.3915 372.634 43.7152C372.634 36.7075 374.136 30.5339 377.139 25.1947C380.143 19.8554 384.147 15.1835 389.153 11.5128C394.158 7.6752 399.831 4.83871 406.505 2.83649C413.179 0.83426 420.187 0 427.528 0C431.199 0 435.037 0.166852 438.708 0.667408C442.545 1.16796 446.049 1.83537 449.553 2.50278C452.89 3.33704 456.06 4.1713 459.064 5.17241C462.067 6.17353 464.403 7.17464 466.071 8.17575C468.407 9.51057 470.076 10.8454 471.077 12.3471C472.078 13.6819 472.579 15.5172 472.579 17.8532V25.6952C472.579 29.1991 471.244 31.0345 468.741 31.0345C467.406 31.0345 465.237 30.3671 462.401 29.0323C452.89 24.6941 442.211 22.525 430.365 22.525C420.854 22.525 413.346 24.0267 408.174 27.1969C403.001 30.3671 400.332 35.2058 400.332 42.0467C400.332 46.7186 402 50.723 405.337 53.8932C408.674 57.0634 414.848 60.2336 423.691 63.0701L447.384 70.5784C459.397 74.416 468.074 79.7553 473.246 86.5962C478.418 93.4372 480.921 101.279 480.921 109.956C480.921 117.13 479.419 123.637 476.583 129.31C473.58 134.983 469.575 139.989 464.403 143.993C459.23 148.165 453.057 151.168 445.882 153.337C438.374 155.673 430.532 156.841 422.022 156.841Z" fill="#252F3E"/>
<path fill-rule="evenodd" clip-rule="evenodd" d="M453.557 237.931C398.663 278.476 318.908 300 250.332 300C154.225 300 67.6285 264.461 2.2225 205.395C-2.94992 200.723 1.72194 194.383 7.89547 198.053C78.6407 239.099 165.904 263.96 256.171 263.96C317.072 263.96 383.98 251.279 445.548 225.25C454.725 221.079 462.567 231.257 453.557 237.931Z" fill="#FF9900"/>
<path fill-rule="evenodd" clip-rule="evenodd" d="M476.416 211.902C469.408 202.892 430.031 207.564 412.178 209.733C406.839 210.4 406.004 205.729 410.843 202.225C442.211 180.2 493.769 186.541 499.775 193.882C505.782 201.39 498.107 252.948 468.741 277.642C464.236 281.479 459.898 279.477 461.9 274.472C468.574 257.953 483.424 220.745 476.416 211.902Z" fill="#FF9900"/>
</svg>
