<svg width="300" height="300" viewBox="0 0 300 300" fill="none" xmlns="http://www.w3.org/2000/svg">
<path d="M149.999 81.7035C136.479 81.7035 123.262 85.7126 112.021 93.2238C100.78 100.735 92.0179 111.411 86.8441 123.902C81.6702 136.393 80.3165 150.137 82.9541 163.397C85.5917 176.657 92.1022 188.838 101.662 198.398C111.222 207.958 123.402 214.468 136.663 217.106C149.923 219.743 163.667 218.39 176.158 213.216C188.649 208.042 199.325 199.28 206.836 188.039C214.347 176.798 218.356 163.581 218.356 150.061C218.335 131.938 211.126 114.564 198.311 101.749C185.496 88.934 168.122 81.7251 149.999 81.7035V81.7035Z" fill="#478AFF"/>
<path d="M248.148 87.7638C265.345 87.7638 279.287 73.8226 279.287 56.6253C279.287 39.4279 265.345 25.4867 248.148 25.4867C230.951 25.4867 217.01 39.4279 217.01 56.6253C217.01 73.8226 230.951 87.7638 248.148 87.7638Z" fill="#478AFF"/>
<path d="M286.49 87.9271L285.184 85.0703L283.143 87.4374C278.039 93.2299 271.583 97.6735 264.35 100.374L262.31 101.109L263.126 103.149C274.123 129.596 275.515 159.057 267.06 186.422C258.606 213.787 240.838 237.33 216.84 252.964C192.842 268.598 164.129 275.339 135.681 272.015C107.233 268.692 80.8457 255.515 61.0978 234.77C41.3499 214.025 29.4873 187.021 27.568 158.444C25.6488 129.867 33.794 101.52 50.5906 78.3207C67.3872 55.1214 91.7752 38.5341 119.523 31.4366C147.271 24.3391 176.629 27.1793 202.502 39.4644L204.42 40.3826L205.256 38.3421C208.306 31.2494 213.058 25.0186 219.091 20.2017L221.54 18.1612L218.744 16.7124C197.507 5.67437 173.913 -0.059493 149.978 0.000465436C117.573 0.00511881 86.0398 10.504 60.0993 29.926C34.1587 49.3479 15.2053 76.6482 6.0758 107.741C-3.05373 138.834 -1.86845 172.048 9.45426 202.411C20.777 232.774 41.6281 258.654 68.8872 276.177C96.1462 293.701 128.347 301.925 160.671 299.62C192.994 297.315 223.702 284.603 248.198 263.389C272.694 242.174 289.662 213.597 296.561 181.934C303.46 150.272 299.919 117.226 286.47 87.7435L286.49 87.9271Z" fill="#478AFF"/>
</svg>
