<svg width="312" height="301" viewBox="0 0 312 301" fill="none" xmlns="http://www.w3.org/2000/svg">
<path d="M19.7896 70.6662C-7.78929 110.288 -4.38034 161.836 16.7211 203.939C17.1916 204.967 17.7353 205.939 18.253 206.932C18.5485 207.575 18.8865 208.22 19.2482 208.851C19.4066 209.201 19.6549 209.584 19.8582 209.925C20.1986 210.612 20.5579 211.246 20.9196 211.901C21.5981 213.043 22.2742 214.204 22.9527 215.336C23.3357 215.967 23.6998 216.601 24.1276 217.232C24.8487 218.454 25.6855 219.66 26.4326 220.88C26.7706 221.4 27.0874 221.908 27.4491 222.416C28.5318 224.067 29.6193 225.693 30.8155 227.296C30.8155 227.343 30.8604 227.385 30.9053 227.407C31.085 227.679 31.2883 227.939 31.468 228.187C32.4845 229.577 33.5011 230.932 34.5649 232.277C34.9265 232.774 35.3308 233.27 35.6949 233.755C36.6641 234.932 37.6144 236.104 38.5601 237.267C38.9241 237.686 39.2835 238.128 39.6688 238.556C40.9336 240.081 42.2669 241.594 43.6238 243.088C43.6238 243.107 43.6664 243.139 43.69 243.175C43.735 243.232 43.7799 243.289 43.8697 243.343C45.1794 244.78 46.5127 246.189 47.8697 247.591C48.2976 248.021 48.7254 248.437 49.2006 248.891C50.2384 249.943 51.2786 251.003 52.3874 252.04C52.8389 252.473 53.2881 252.889 53.7207 253.305C55.1651 254.662 56.6096 256.019 58.1225 257.314C58.1461 257.338 58.1698 257.352 58.191 257.371C58.4393 257.586 58.7112 257.804 58.9381 258.017C60.269 259.156 61.6048 260.286 62.9568 261.404C63.5008 261.858 64.0419 262.286 64.586 262.726C65.7158 263.619 66.8433 264.475 67.9714 265.335C68.5597 265.775 69.1485 266.227 69.7585 266.692C70.978 267.605 72.2429 268.496 73.4841 269.378C73.9356 269.707 74.3871 270.035 74.8621 270.338C74.9759 270.44 75.1103 270.529 75.2241 270.622C76.4653 271.435 77.64 272.224 78.8625 273.028C79.4011 273.375 79.924 273.716 80.4439 274.063C82.3399 275.274 84.236 276.437 86.1127 277.567C86.6544 277.851 87.1954 278.156 87.7159 278.458C89.1151 279.272 90.5403 280.075 91.9849 280.843C92.7747 281.283 93.5663 281.669 94.3773 282.073C95.3516 282.605 96.3677 283.146 97.4081 283.678C97.6562 283.777 97.9043 283.869 98.1295 283.992C98.5573 284.187 98.9634 284.401 99.3701 284.602C100.955 285.382 102.578 286.118 104.252 286.863C104.566 287.012 104.905 287.144 105.245 287.314C107.117 288.127 108.995 288.907 110.914 289.664C111.368 289.832 111.817 290.038 112.292 290.193C114.032 290.872 115.838 291.538 117.623 292.182C117.85 292.274 118.051 292.342 118.278 292.418C120.266 293.099 122.231 293.74 124.242 294.364C124.715 294.498 125.19 294.666 125.687 294.791C127.743 295.411 129.729 296.137 131.831 296.531C265.172 320.836 303.912 216.398 303.912 216.398C271.364 258.761 213.603 269.955 158.895 257.508C156.859 257.047 154.849 256.402 152.795 255.79C152.318 255.655 151.776 255.499 151.301 255.328C149.316 254.731 147.351 254.085 145.431 253.43C145.159 253.34 144.866 253.241 144.594 253.125C142.857 252.527 141.141 251.872 139.422 251.208C138.947 251.003 138.451 250.832 137.975 250.653C136.077 249.908 134.204 249.106 132.374 248.303C131.968 248.158 131.628 247.986 131.242 247.83C129.642 247.095 128.105 246.373 126.545 245.627C126.072 245.423 125.642 245.196 125.167 244.96C123.947 244.383 122.729 243.74 121.533 243.107C120.697 242.679 119.881 242.284 119.091 241.844C117.623 241.054 116.155 240.217 114.687 239.405C114.233 239.097 113.737 238.837 113.216 238.556C111.32 237.428 109.399 236.262 107.526 235.067C106.985 234.726 106.486 234.388 105.99 234.038C104.611 233.171 103.254 232.253 101.923 231.35C101.493 231.045 101.065 230.729 100.614 230.411C99.3253 229.508 98.0605 228.596 96.7744 227.655C96.231 227.227 95.6657 226.799 95.0793 226.369C93.9258 225.478 92.7747 224.596 91.6236 223.67C91.1243 223.253 90.6093 222.844 90.1082 222.44C88.6188 221.244 87.219 220.043 85.7938 218.802C85.6588 218.655 85.4579 218.53 85.2969 218.407C83.7839 217.052 82.2709 215.665 80.7798 214.284C80.3277 213.856 79.9476 213.459 79.4937 213.053C78.411 211.991 77.3259 210.953 76.2644 209.878C75.8129 209.428 75.4038 209.01 74.9759 208.582C73.6191 207.213 72.2852 205.802 70.978 204.357C70.9096 204.299 70.8412 204.234 70.7723 204.154C69.3966 202.641 68.0634 201.104 66.7326 199.544C66.3682 199.128 66.0299 198.698 65.6711 198.291C64.6967 197.095 63.7254 195.884 62.7322 194.689C62.4181 194.225 62.0538 193.786 61.6925 193.332C60.5408 191.851 59.4345 190.374 58.3282 188.849C27.9668 147.431 17.0119 90.2715 41.2977 43.3665" fill="#2E64B3"/>
<path d="M105.403 37.2674C85.4107 65.9548 86.5194 104.368 102.082 134.725C104.656 139.807 107.592 144.746 110.89 149.432C113.874 153.722 117.171 158.805 121.169 162.252C122.568 163.833 124.081 165.37 125.642 166.913C126.027 167.299 126.413 167.675 126.817 168.079C128.309 169.511 129.822 170.925 131.379 172.301C131.427 172.36 131.514 172.417 131.562 172.474C131.583 172.485 131.606 172.505 131.606 172.505C133.344 174.041 135.107 175.5 136.938 176.923C137.365 177.228 137.75 177.568 138.178 177.871C139.987 179.285 141.84 180.637 143.713 181.97C143.781 181.994 143.826 182.039 143.918 182.074C144.729 182.66 145.588 183.202 146.469 183.767C146.852 184.015 147.258 184.308 147.644 184.547C149.02 185.441 150.377 186.273 151.776 187.1C151.982 187.202 152.183 187.313 152.386 187.414C153.561 188.126 154.802 188.826 156.048 189.459C156.476 189.719 156.904 189.923 157.334 190.159C158.193 190.587 159.051 191.039 159.885 191.481C159.998 191.54 160.159 191.603 160.294 191.663C162.055 192.532 163.84 193.332 165.601 194.136C166.029 194.306 166.393 194.452 166.797 194.62C168.247 195.242 169.712 195.854 171.159 196.405C171.812 196.622 172.424 196.878 173.034 197.095C174.365 197.568 175.721 198.031 177.055 198.471C177.708 198.686 178.296 198.868 178.885 199.06C180.781 199.66 182.703 200.428 184.712 200.741C287.628 217.809 311.436 138.531 311.436 138.531C290 169.412 248.501 184.117 204.23 172.62C202.242 172.112 200.301 171.545 198.4 170.925C197.79 170.767 197.251 170.575 196.662 170.372C195.284 169.933 193.903 169.467 192.572 168.97C191.962 168.746 191.331 168.519 190.722 168.282C189.254 167.708 187.785 167.143 186.36 166.509C185.932 166.339 185.526 166.195 185.187 166.013C183.358 165.221 181.549 164.372 179.788 163.528C178.885 163.065 178.003 162.613 177.1 162.138C176.558 161.867 176.039 161.606 175.563 161.358C174.365 160.739 173.258 160.081 172.128 159.417C171.861 159.27 171.587 159.134 171.315 158.975C169.939 158.14 168.514 157.303 167.206 156.434C166.752 156.176 166.369 155.881 165.941 155.611C165.036 155.034 164.157 154.46 163.228 153.838C161.355 152.538 159.526 151.162 157.696 149.781C157.265 149.432 156.859 149.117 156.453 148.777C137.025 133.484 121.665 112.569 114.394 88.8838C106.713 64.2833 108.406 36.667 121.644 14.2724" fill="#2E64B3"/>
<path d="M177.372 12.317C165.58 29.6195 164.45 51.116 172.58 70.2008C181.211 90.4887 198.851 106.401 219.409 113.933C220.244 114.261 221.081 114.534 221.939 114.827C222.324 114.938 222.683 115.063 223.092 115.186C224.288 115.56 225.485 116.011 226.726 116.25C283.581 127.228 298.99 87.0749 303.122 81.1676C289.593 100.619 266.891 105.281 239.038 98.5173C236.846 97.9853 234.451 97.1955 232.329 96.4275C229.619 95.4677 226.932 94.3517 224.31 93.1177C219.409 90.7369 214.665 87.867 210.282 84.5457C185.343 65.6383 169.895 29.5748 186.157 0.199227" fill="#2E64B3"/>
</svg>
