<svg width="292" height="300" viewBox="0 0 292 300" fill="none" xmlns="http://www.w3.org/2000/svg">
<path d="M291.247 67.8671C291.209 67.7279 291.131 67.606 291.082 67.4715C290.991 67.2231 290.911 66.9715 290.78 66.7437C290.691 66.5902 290.563 66.4652 290.459 66.3244C290.321 66.1392 290.204 65.9415 290.04 65.7785C289.905 65.6424 289.733 65.5443 289.581 65.4256C289.408 65.2911 289.255 65.1377 289.063 65.0269C289.063 65.0269 289.062 65.0269 289.06 65.0253C289.059 65.0253 289.059 65.0237 289.057 65.0222L232.652 32.5475C231.201 31.712 229.413 31.712 227.962 32.5475L171.559 65.019C171.557 65.019 171.557 65.0206 171.555 65.0222C171.554 65.0222 171.552 65.0222 171.552 65.0237C171.361 65.1345 171.206 65.288 171.035 65.4225C170.883 65.5411 170.71 65.6408 170.576 65.7753C170.413 65.9383 170.294 66.1361 170.157 66.3212C170.052 66.462 169.924 66.5886 169.835 66.7405C169.704 66.9684 169.625 67.2215 169.533 67.4684C169.484 67.6028 169.407 67.7247 169.369 67.8639C169.263 68.2579 169.206 68.6709 169.206 69.0918V130.767L122.203 157.829V37.1725C122.203 36.7532 122.146 36.3402 122.04 35.9446C122.002 35.8054 121.924 35.6835 121.875 35.5491C121.783 35.3006 121.704 35.0491 121.573 34.8212C121.484 34.6677 121.356 34.5427 121.252 34.4019C121.114 34.2168 120.997 34.019 120.832 33.856C120.698 33.7199 120.525 33.6218 120.373 33.5032C120.201 33.3687 120.047 33.2152 119.856 33.1044C119.856 33.1044 119.854 33.1044 119.853 33.1029C119.851 33.1029 119.851 33.1013 119.85 33.0997L63.4462 0.626582C61.9952 -0.208861 60.2073 -0.208861 58.7563 0.626582L2.35285 33.0997C2.35127 33.0997 2.35127 33.1013 2.34968 33.1029C2.3481 33.1029 2.34652 33.1029 2.34652 33.1044C2.15507 33.2152 1.99999 33.3687 1.8291 33.5032C1.6772 33.6218 1.50474 33.7215 1.37025 33.856C1.20727 34.019 1.0886 34.2168 0.950946 34.4019C0.846516 34.5427 0.718347 34.6693 0.629739 34.8212C0.49841 35.0491 0.419305 35.3022 0.327533 35.5491C0.278482 35.6835 0.200944 35.8054 0.16297 35.9446C0.056957 36.3386 0 36.7516 0 37.1725V230.353C0 232.035 0.898732 233.587 2.35601 234.427L115.161 299.372C115.408 299.513 115.674 299.598 115.937 299.692C116.06 299.736 116.174 299.809 116.301 299.842C116.695 299.946 117.101 300 117.506 300C117.911 300 118.316 299.948 118.712 299.842C118.821 299.813 118.921 299.748 119.028 299.71C119.307 299.614 119.589 299.522 119.85 299.372L232.655 234.427C234.112 233.589 235.011 232.035 235.011 230.353V168.677L289.059 137.56C290.516 136.722 291.415 135.168 291.415 133.486V69.0918C291.41 68.6741 291.354 68.2611 291.247 67.8671ZM117.492 224.948L70.5807 198.399L119.847 170.035C119.847 170.035 119.847 170.035 119.848 170.033L173.905 138.911L220.858 165.943L186.408 185.608L117.492 224.948ZM225.608 104.285V157.831L205.869 146.467L178.604 130.771V77.2247L198.343 88.5886L225.608 104.285ZM230.307 42.0459L277.29 69.0949L230.307 96.144L183.324 69.0949L230.307 42.0459ZM85.538 178.938L65.799 190.302V72.3623L93.0633 56.6661L112.802 45.3022V163.241L85.538 178.938ZM61.0981 10.1234L108.081 37.1725L61.0981 64.2215L14.1155 37.1725L61.0981 10.1234ZM9.39555 45.3038L29.1345 56.6677L56.3987 72.3639V198.434C56.3987 198.437 56.4003 198.438 56.4003 198.441C56.4003 198.445 56.3987 198.448 56.3987 198.451C56.3987 198.631 56.4494 198.801 56.4699 198.978C56.4968 199.209 56.5032 199.443 56.5633 199.665C56.5649 199.668 56.5649 199.672 56.5665 199.676C56.6171 199.861 56.7152 200.027 56.788 200.204C56.8687 200.4 56.9272 200.608 57.0348 200.791C57.0364 200.796 57.038 200.801 57.0411 200.805C57.1376 200.972 57.2769 201.108 57.3924 201.261C57.5206 201.427 57.6282 201.609 57.7785 201.758C57.7832 201.763 57.7864 201.769 57.7911 201.774C57.9241 201.905 58.0918 201.998 58.2405 202.114C58.4082 202.245 58.5601 202.396 58.7468 202.505C58.7532 202.508 58.7611 202.51 58.7674 202.513C58.7737 202.516 58.7785 202.522 58.7848 202.525L112.802 233.097V287.171L9.39715 227.638V45.3038H9.39555ZM225.608 227.638L122.203 287.171V233.085L198.783 189.37L225.608 174.059V227.638V227.638ZM282.01 130.771L235.006 157.831V104.285L262.271 88.5886L282.01 77.2247V130.771Z" fill="#FF2D20"/>
</svg>
