<svg width="581" height="300" viewBox="0 0 581 300" fill="none" xmlns="http://www.w3.org/2000/svg">
<path d="M0 273.248H19.1383V197.699L48.7662 263.584C52.2608 271.527 57.0489 274.38 66.4323 274.38C75.8156 274.38 80.4165 271.558 83.9168 263.584L113.548 197.699V273.277H132.689V197.824C132.689 190.463 129.739 186.903 123.668 185.065C109.131 180.527 99.3761 184.453 94.9624 194.267L65.8876 259.29L37.7263 194.239C33.4941 184.424 23.5576 180.499 9.02026 185.037C2.94435 186.878 0 190.438 0 197.796V273.248ZM148.596 211.735H167.729V253.375C167.55 255.639 168.455 260.949 178.939 261.111C184.289 261.196 220.222 261.111 220.557 261.111V211.528H239.732C239.817 211.528 239.712 279.134 239.715 279.424C239.82 296.097 219.025 299.719 209.443 300H149.013V287.122L209.551 287.119C221.867 285.814 220.415 279.696 220.415 277.634V272.613H179.739C160.813 272.443 148.763 264.18 148.613 254.677C148.599 253.826 149.022 212.143 148.602 211.732L148.596 211.735Z" fill="#00618A"/>
<path d="M254.485 273.248H309.508C315.947 273.248 322.208 271.901 327.18 269.567C335.463 265.766 339.511 260.611 339.511 253.863V239.879C339.511 234.356 334.91 229.205 325.895 225.77C321.11 223.926 315.221 222.948 309.517 222.948H286.328C278.601 222.948 274.919 220.616 274 215.465C273.816 214.852 273.816 214.33 273.816 213.746V205.038C273.816 204.547 273.816 204.053 274 203.441C274.919 199.515 276.945 198.409 283.752 197.767C284.306 197.767 285.04 197.643 285.596 197.643H340.251V184.887H286.515C278.786 184.887 274.738 185.377 271.056 186.481C259.636 190.041 254.666 195.714 254.666 205.528V216.693C254.666 225.282 264.424 232.643 280.797 234.359C282.641 234.481 284.479 234.603 286.317 234.603H306.193C306.93 234.603 307.668 234.603 308.218 234.728C314.288 235.219 316.869 236.322 318.707 238.529C319.842 239.663 320.182 240.741 320.182 241.933V253.097C320.182 254.448 319.263 256.167 317.422 257.636C315.766 259.111 313.006 260.09 309.324 260.336C308.587 260.336 308.036 260.458 307.302 260.458H254.485V273.217V273.248ZM458.899 251.044C458.899 264.171 468.651 271.532 488.342 273.004C490.179 273.147 492.02 273.228 493.862 273.248H543.735V260.49H493.493C482.269 260.49 478.034 257.667 478.034 250.919V184.912H458.896V251.038L458.899 251.044ZM351.719 251.708V206.223C351.719 194.667 359.832 187.658 375.875 185.445C377.586 185.201 379.313 185.078 381.041 185.077H417.369C419.158 185.078 420.946 185.201 422.718 185.445C438.762 187.658 446.875 194.664 446.875 206.223V251.708C446.875 261.082 443.428 266.1 435.486 269.371L454.338 286.39H432.116L416.864 272.621L401.51 273.594H381.041C377.538 273.594 373.85 273.101 369.791 271.995C357.594 268.676 351.722 262.282 351.722 251.708H351.719ZM372.378 250.573C372.378 251.188 372.562 251.801 372.747 252.541C373.881 257.829 378.831 260.779 386.362 260.779H403.75L387.781 246.361H410.002L423.901 258.935C426.468 257.568 428.156 255.474 428.723 252.788C428.908 252.176 428.908 251.56 428.908 250.944V207.332C428.908 206.842 428.908 206.198 428.723 205.611C427.589 200.695 422.636 197.867 415.261 197.867H386.396C377.887 197.867 372.384 201.554 372.384 207.332V250.607L372.378 250.573Z" fill="#E48E00"/>
<path d="M560.573 163.746C548.809 163.428 539.82 164.52 532.139 167.76C529.955 168.681 526.474 168.704 526.117 171.441C527.317 172.698 527.507 174.576 528.457 176.122C530.292 179.092 533.393 183.071 536.153 185.153C539.171 187.431 542.28 189.871 545.522 191.848C551.28 195.359 557.708 197.365 563.25 200.879C566.518 202.95 569.763 205.56 572.951 207.903C574.526 209.06 575.589 210.858 577.632 211.582V211.247C576.554 209.877 576.279 207.993 575.292 206.567L570.943 202.218C566.688 196.545 561.293 191.618 555.555 187.496C550.979 184.212 540.737 179.775 538.828 174.448L538.493 174.113C541.738 173.745 545.536 172.573 548.534 171.773C553.564 170.426 558.059 170.772 563.256 169.433L570.282 167.425V166.086C567.656 163.391 565.783 159.826 562.921 157.389C555.433 151.007 547.255 144.639 538.839 139.32C534.17 136.37 528.4 134.458 523.451 131.959C521.786 131.12 518.861 130.683 517.763 129.282C515.165 125.968 513.75 121.765 511.744 117.935C507.546 109.851 503.422 101.018 499.7 92.5113C497.161 86.7105 495.502 80.9891 492.342 75.7841C477.152 50.811 460.799 35.7375 435.475 20.925C430.085 17.7764 423.598 16.5283 416.739 14.9029L405.699 14.2335C403.453 13.2974 401.115 10.546 399.005 9.2128C390.614 3.90843 369.093 -7.61652 362.879 7.51086C358.956 17.0786 368.742 26.4137 372.245 31.2642C374.701 34.6681 377.85 38.4776 379.603 42.3041C380.757 44.8173 380.959 47.339 381.946 49.9997C384.377 56.5238 386.493 63.6804 389.639 69.7365C391.227 72.8 392.98 76.028 394.991 78.7681C396.225 80.4502 398.338 81.1905 398.67 83.7888C396.605 86.6821 396.486 91.1639 395.323 94.8287C390.095 111.315 392.067 131.803 399.672 144.006C402.006 147.75 407.5 155.784 415.06 152.703C421.669 150.008 420.166 141.669 422.086 134.305C422.512 132.632 422.251 131.412 423.09 130.291V130.626L429.112 142.667C433.566 149.844 441.48 157.347 448.18 162.41C451.654 165.034 454.42 169.572 458.885 171.107V170.772H458.55C457.679 169.41 456.318 168.852 455.203 167.765C452.585 165.198 449.672 162.007 447.507 159.068C441.409 150.791 436.025 141.737 431.118 132.305C428.775 127.804 426.735 122.837 424.764 118.256C424.004 116.489 424.012 113.82 422.424 112.903C420.259 116.262 417.071 118.974 415.397 122.939C412.72 129.276 412.374 137.003 411.384 145.019C410.797 145.229 411.058 145.084 410.714 145.354C406.057 144.23 404.417 139.434 402.687 135.318C398.307 124.908 397.496 108.155 401.348 96.1789C402.341 93.0814 406.851 83.318 405.027 80.4559C404.156 77.5995 401.283 75.9174 399.674 73.7616C397.689 71.0669 395.698 67.5098 394.322 64.3953C390.736 56.2827 389.063 47.1773 385.29 38.9712C383.486 35.051 380.44 31.0855 377.932 27.6249C375.158 23.7672 372.052 20.9193 369.905 16.2787C369.139 14.6193 368.101 11.9671 369.235 10.2567C369.344 9.76521 369.59 9.31501 369.946 8.95917C370.302 8.60333 370.752 8.35669 371.244 8.24837C373.184 6.7535 378.59 8.74476 380.61 9.58722C385.971 11.8168 390.453 13.9385 394.997 16.9481C397.181 18.3664 399.385 21.1916 402.02 21.9688H405.027C409.736 23.0524 415.012 22.3092 419.408 23.6424C427.186 26.0052 434.153 29.6843 440.484 33.6781C459.767 45.8527 475.53 63.184 486.314 83.8853C488.05 87.2126 488.799 90.3923 490.328 93.921C493.411 101.012 497.295 108.368 500.364 115.329C503.427 122.278 506.406 129.284 510.734 135.065C513.009 138.1 521.797 139.734 525.788 141.419C528.588 142.602 533.171 143.836 535.824 145.433C540.887 148.488 545.794 152.127 550.545 155.474C552.92 157.148 560.218 160.816 560.581 163.837L560.573 163.746Z" fill="#00618A"/>
<path fill-rule="evenodd" clip-rule="evenodd" d="M411.046 36.2934C408.593 36.2481 406.86 36.5601 405.024 36.9629V37.2976H405.359C406.528 39.703 408.593 41.2489 410.039 43.3196L413.387 50.3429L413.721 50.0082C415.792 48.5474 416.742 46.2129 416.728 42.6473C415.897 41.7737 415.775 40.6788 415.054 39.6349C414.099 38.245 412.218 37.4564 411.041 36.2878L411.046 36.2934Z" fill="#00618A"/>
<path fill-rule="evenodd" clip-rule="evenodd" d="M552.718 260.126C552.718 268.551 559.376 274.23 566.822 274.23C574.268 274.23 580.925 268.551 580.925 260.126C580.925 251.702 574.268 246.023 566.822 246.023C559.376 246.023 552.718 251.702 552.718 260.126ZM577.765 260.126C577.765 266.52 572.878 271.297 566.816 271.297C560.689 271.297 555.867 266.52 555.867 260.126C555.867 253.733 560.683 248.956 566.816 248.956C572.872 248.956 577.765 253.733 577.765 260.126ZM570.617 268.177H573.774L569.15 261.108C571.632 260.844 573.51 259.639 573.51 256.706C573.51 253.432 571.44 252.082 567.457 252.082H561.174V268.179H563.883V261.221H566.402L570.614 268.179L570.617 268.177ZM563.883 258.958V254.334H567.003C568.62 254.334 570.577 254.635 570.577 256.518C570.577 258.773 568.81 258.963 566.776 258.963H563.883V258.958Z" fill="#E48E00"/>
</svg>
